<svg xmlns="http://www.w3.org/2000/svg" viewBox="0 0 87.3 78" fill="none">
  <path d="M6.6 66.85L14.75 78h57.75l8.15-11.15H6.6z" fill="#0066DA"/>
  <path d="M43.65 25L29 0H0l14.65 25 14.65 25h29L43.65 25z" fill="#00AC47"/>
  <path d="M72.65 78l14.65-25L58.3 0H29l14.65 25 29 53z" fill="#EA4335"/>
  <path d="M29 0L0 50l6.6 16.85 22.1-16.85L43.65 25 29 0z" fill="#00832D"/>
  <path d="M43.65 50L29 50 6.6 66.85h73.9L58.3 50H43.65z" fill="#2684FC"/>
  <path d="M72.65 78L43.65 25 29 50l22.1 16.85L72.65 78z" fill="#FFBA00"/>
</svg>
